<svg xmlns="http://www.w3.org/2000/svg" width="1200" height="500" viewBox="0 0 1200 500" role="img" aria-label="Specialized Model Pipelines">
<defs>
<marker id="arrow" markerWidth="10" markerHeight="10" refX="8" refY="3" orient="auto" markerUnits="strokeWidth"><path d="M0,0 L0,6 L9,3 z" fill="#334155"/></marker>
<marker id="arrow-blue" markerWidth="10" markerHeight="10" refX="8" refY="3" orient="auto" markerUnits="strokeWidth"><path d="M0,0 L0,6 L9,3 z" fill="#2563eb"/></marker>
<marker id="arrow-red" markerWidth="10" markerHeight="10" refX="8" refY="3" orient="auto" markerUnits="strokeWidth"><path d="M0,0 L0,6 L9,3 z" fill="#dc2626"/></marker>
<filter id="shadow" x="-10%" y="-10%" width="120%" height="120%"><feDropShadow dx="0" dy="4" stdDeviation="5" flood-color="#0f172a" flood-opacity="0.12"/></filter>
<style>
text{font-family:Inter, ui-sans-serif, system-ui, -apple-system, BlinkMacSystemFont, "Segoe UI", sans-serif; fill:#0f172a} .title{font-size:34px;font-weight:800}.subtitle{font-size:17px;fill:#475569}.label{font-size:18px;font-weight:700}.small{font-size:14px;fill:#334155}.tiny{font-size:12px;fill:#475569}.mono{font-family:ui-monospace,SFMono-Regular,Menlo,Monaco,Consolas,"Liberation Mono",monospace}.muted{fill:#64748b}
</style>
</defs>
<rect x="0" y="0" width="1200" height="500" fill="#f8fafc"/>
<text x="600" y="44" text-anchor="middle" class="title">Specialized Model Pipelines</text>
<text x="600" y="72" text-anchor="middle" class="subtitle">Agents often coordinate several models, not just one</text>
<text x="70" y="187" class="label" text-anchor="start">Document agent</text>
<rect x="230" y="155" width="105" height="64" rx="16" fill="#ffffff" stroke="#2563eb" stroke-width="2" filter=""/>
<text x="282.5" y="185" class="label" text-anchor="middle">OCR</text>
<line x1="335" y1="187" x2="375" y2="187" stroke="#2563eb" stroke-width="2.5" marker-end="url(#arrow-blue)"/>
<rect x="375" y="155" width="105" height="64" rx="16" fill="#ffffff" stroke="#2563eb" stroke-width="2" filter=""/>
<text x="427.5" y="185" class="label" text-anchor="middle">Layout</text>
<line x1="480" y1="187" x2="520" y2="187" stroke="#2563eb" stroke-width="2.5" marker-end="url(#arrow-blue)"/>
<rect x="520" y="155" width="105" height="64" rx="16" fill="#ffffff" stroke="#2563eb" stroke-width="2" filter=""/>
<text x="572.5" y="185" class="label" text-anchor="middle">Embedding</text>
<line x1="625" y1="187" x2="665" y2="187" stroke="#2563eb" stroke-width="2.5" marker-end="url(#arrow-blue)"/>
<rect x="665" y="155" width="105" height="64" rx="16" fill="#ffffff" stroke="#2563eb" stroke-width="2" filter=""/>
<text x="717.5" y="185" class="label" text-anchor="middle">Reranker</text>
<line x1="770" y1="187" x2="810" y2="187" stroke="#2563eb" stroke-width="2.5" marker-end="url(#arrow-blue)"/>
<rect x="810" y="155" width="105" height="64" rx="16" fill="#ffffff" stroke="#2563eb" stroke-width="2" filter=""/>
<text x="862.5" y="185" class="label" text-anchor="middle">Reasoning</text>
<line x1="915" y1="187" x2="955" y2="187" stroke="#2563eb" stroke-width="2.5" marker-end="url(#arrow-blue)"/>
<rect x="955" y="155" width="105" height="64" rx="16" fill="#ffffff" stroke="#2563eb" stroke-width="2" filter=""/>
<text x="1007.5" y="185" class="label" text-anchor="middle">Validator</text>
<text x="70" y="332" class="label" text-anchor="start">Coding agent</text>
<rect x="230" y="300" width="105" height="64" rx="16" fill="#ffffff" stroke="#7c3aed" stroke-width="2" filter=""/>
<text x="282.5" y="330" class="label" text-anchor="middle">Planner</text>
<line x1="335" y1="332" x2="375" y2="332" stroke="#7c3aed" stroke-width="2.5" marker-end="url(#arrow)"/>
<rect x="375" y="300" width="105" height="64" rx="16" fill="#ffffff" stroke="#7c3aed" stroke-width="2" filter=""/>
<text x="427.5" y="330" class="label" text-anchor="middle">Code model</text>
<line x1="480" y1="332" x2="520" y2="332" stroke="#7c3aed" stroke-width="2.5" marker-end="url(#arrow)"/>
<rect x="520" y="300" width="105" height="64" rx="16" fill="#ffffff" stroke="#7c3aed" stroke-width="2" filter=""/>
<text x="572.5" y="330" class="label" text-anchor="middle">CLI sandbox</text>
<line x1="625" y1="332" x2="665" y2="332" stroke="#7c3aed" stroke-width="2.5" marker-end="url(#arrow)"/>
<rect x="665" y="300" width="105" height="64" rx="16" fill="#ffffff" stroke="#7c3aed" stroke-width="2" filter=""/>
<text x="717.5" y="330" class="label" text-anchor="middle">Test parser</text>
<line x1="770" y1="332" x2="810" y2="332" stroke="#7c3aed" stroke-width="2.5" marker-end="url(#arrow)"/>
<rect x="810" y="300" width="105" height="64" rx="16" fill="#ffffff" stroke="#7c3aed" stroke-width="2" filter=""/>
<text x="862.5" y="330" class="label" text-anchor="middle">Reviewer</text>
</svg>
